# xmcd
#
# Track frame offsets:
#	150
#	13236
#	31825
#	50853
#	66894
#	85696
#	109399
#	126385
#	141405
#	159363
#	175758
#
# Disc length: 2605 seconds
# Revision: 0
# Processed by: cddbd v1.5.2PL0 Copyright (c) Steve Scherf et al.
# Submitted via: dBpowerAMP V12.0
#
DISCID=9a0a2b0b
DTITLE=Monocle Band - Monocle Band
DYEAR=2013
DGENRE=Americana
TTITLE0=Can't Get By
TTITLE1=Dissipate
TTITLE2=Far Away
TTITLE3=Falling
TTITLE4=As Fast As I Can
TTITLE5=Heart House
TTITLE6=Water Sky
TTITLE7=Silly Joy
TTITLE8=Slow Walk
TTITLE9=Fine
TTITLE10=Home
EXTD=
EXTT0=
EXTT1=
EXTT2=
EXTT3=
EXTT4=
EXTT5=
EXTT6=
EXTT7=
EXTT8=
EXTT9=
EXTT10=
PLAYORDER=
